<svg width="265" height="266" viewBox="0 0 265 266" fill="none" xmlns="http://www.w3.org/2000/svg">
<rect y="0.0333557" width="265" height="265" rx="15" fill="white"/>
<path d="M200.956 57.8515H52.0371C50.4055 57.8515 49.5167 59.6999 50.4719 61.0225L63.2421 78.7043C63.6181 79.225 64.2213 79.5334 64.8635 79.5334H138.092C139.93 79.5334 140.795 81.8033 139.423 83.0262L44.0326 168.073C43.607 168.453 43.3636 168.996 43.3636 169.566V202.806C43.3636 203.911 44.259 204.806 45.3636 204.806H215.758C217.299 204.806 218.261 203.137 217.489 201.804L206.555 182.918C206.197 182.3 205.538 181.92 204.824 181.92H79.7102C77.901 181.92 77.0216 179.709 78.3366 178.466L202.322 61.3052C203.637 60.0626 202.765 57.8515 200.956 57.8515Z" fill="black"/>
</svg>
