<svg xmlns="http://www.w3.org/2000/svg" viewBox="0 0 32 32">
  <path fill="#DC382D" d="M16 0C7.164 0 0 7.164 0 16s7.164 16 16 16 16-7.164 16-16S24.836 0 16 0zm0 28C9.373 28 4 22.627 4 16S9.373 4 16 4s12 5.373 12 12-5.373 12-12 12z"/>
  <path fill="#DC382D" d="M22.5 11h-11c-.276 0-.5.224-.5.5s.224.5.5.5h11c.276 0 .5-.224.5-.5s-.224-.5-.5-.5zM22.5 15h-11c-.276 0-.5.224-.5.5s.224.5.5.5h11c.276 0 .5-.224.5-.5s-.224-.5-.5-.5zM22.5 19h-11c-.276 0-.5.224-.5.5s.224.5.5.5h11c.276 0 .5-.224.5-.5s-.224-.5-.5-.5z"/>
</svg>